solid 
 facet normal  0.000000e+00  1.000000e+00  0.000000e+00
   outer loop
     vertex -1.370000e+04  1.620000e+04  0.000000e+00
     vertex -1.370000e+04  1.620000e+04  5.750000e+03
     vertex -1.320000e+04  1.620000e+04  5.750000e+03
   endloop
 endfacet
 facet normal  0.000000e+00  1.000000e+00 -0.000000e+00
   outer loop
     vertex -1.320000e+04  1.620000e+04  0.000000e+00
     vertex -1.370000e+04  1.620000e+04  0.000000e+00
     vertex -1.320000e+04  1.620000e+04  5.750000e+03
   endloop
 endfacet
 facet normal  1.000000e+00  0.000000e+00 -0.000000e+00
   outer loop
     vertex -1.320000e+04  1.620000e+04  0.000000e+00
     vertex -1.320000e+04  1.620000e+04  5.750000e+03
     vertex -1.320000e+04  1.570000e+04  5.750000e+03
   endloop
 endfacet
 facet normal  1.000000e+00  0.000000e+00  0.000000e+00
   outer loop
     vertex -1.320000e+04  1.570000e+04  0.000000e+00
     vertex -1.320000e+04  1.620000e+04  0.000000e+00
     vertex -1.320000e+04  1.570000e+04  5.750000e+03
   endloop
 endfacet
 facet normal  9.662349e-01 -2.576627e-01  0.000000e+00
   outer loop
     vertex -1.336000e+04  1.510000e+04  0.000000e+00
     vertex -1.320000e+04  1.570000e+04  0.000000e+00
     vertex -1.320000e+04  1.570000e+04  5.750000e+03
   endloop
 endfacet
 facet normal  9.662349e-01 -2.576627e-01  0.000000e+00
   outer loop
     vertex -1.336000e+04  1.510000e+04  0.000000e+00
     vertex -1.320000e+04  1.570000e+04  5.750000e+03
     vertex -1.336000e+04  1.510000e+04  5.750000e+03
   endloop
 endfacet
 facet normal  0.000000e+00 -1.000000e+00  0.000000e+00
   outer loop
     vertex -1.354000e+04  1.510000e+04  0.000000e+00
     vertex -1.336000e+04  1.510000e+04  0.000000e+00
     vertex -1.336000e+04  1.510000e+04  5.750000e+03
   endloop
 endfacet
 facet normal  0.000000e+00 -1.000000e+00  0.000000e+00
   outer loop
     vertex -1.354000e+04  1.510000e+04  0.000000e+00
     vertex -1.336000e+04  1.510000e+04  5.750000e+03
     vertex -1.354000e+04  1.510000e+04  5.750000e+03
   endloop
 endfacet
 facet normal -9.662349e-01 -2.576627e-01  0.000000e+00
   outer loop
     vertex -1.370000e+04  1.570000e+04  0.000000e+00
     vertex -1.354000e+04  1.510000e+04  0.000000e+00
     vertex -1.354000e+04  1.510000e+04  5.750000e+03
   endloop
 endfacet
 facet normal -9.662349e-01 -2.576627e-01  0.000000e+00
   outer loop
     vertex -1.370000e+04  1.570000e+04  0.000000e+00
     vertex -1.354000e+04  1.510000e+04  5.750000e+03
     vertex -1.370000e+04  1.570000e+04  5.750000e+03
   endloop
 endfacet
 facet normal -1.000000e+00  0.000000e+00  0.000000e+00
   outer loop
     vertex -1.370000e+04  1.570000e+04  0.000000e+00
     vertex -1.370000e+04  1.570000e+04  5.750000e+03
     vertex -1.370000e+04  1.620000e+04  5.750000e+03
   endloop
 endfacet
 facet normal -1.000000e+00  0.000000e+00  0.000000e+00
   outer loop
     vertex -1.370000e+04  1.620000e+04  0.000000e+00
     vertex -1.370000e+04  1.570000e+04  0.000000e+00
     vertex -1.370000e+04  1.620000e+04  5.750000e+03
   endloop
 endfacet
 facet normal  0.000000e+00  0.000000e+00 -1.000000e+00
   outer loop
     vertex -1.320000e+04  1.570000e+04  0.000000e+00
     vertex -1.336000e+04  1.510000e+04  0.000000e+00
     vertex -1.354000e+04  1.510000e+04  0.000000e+00
   endloop
 endfacet
 facet normal  0.000000e+00  0.000000e+00 -1.000000e+00
   outer loop
     vertex -1.370000e+04  1.570000e+04  0.000000e+00
     vertex -1.320000e+04  1.570000e+04  0.000000e+00
     vertex -1.354000e+04  1.510000e+04  0.000000e+00
   endloop
 endfacet
 facet normal  0.000000e+00  0.000000e+00 -1.000000e+00
   outer loop
     vertex -1.370000e+04  1.620000e+04  0.000000e+00
     vertex -1.320000e+04  1.620000e+04  0.000000e+00
     vertex -1.320000e+04  1.570000e+04  0.000000e+00
   endloop
 endfacet
 facet normal  0.000000e+00  0.000000e+00 -1.000000e+00
   outer loop
     vertex -1.370000e+04  1.620000e+04  0.000000e+00
     vertex -1.320000e+04  1.570000e+04  0.000000e+00
     vertex -1.370000e+04  1.570000e+04  0.000000e+00
   endloop
 endfacet
 facet normal  0.000000e+00  0.000000e+00  1.000000e+00
   outer loop
     vertex -1.320000e+04  1.570000e+04  5.750000e+03
     vertex -1.354000e+04  1.510000e+04  5.750000e+03
     vertex -1.336000e+04  1.510000e+04  5.750000e+03
   endloop
 endfacet
 facet normal -0.000000e+00  0.000000e+00  1.000000e+00
   outer loop
     vertex -1.370000e+04  1.570000e+04  5.750000e+03
     vertex -1.354000e+04  1.510000e+04  5.750000e+03
     vertex -1.320000e+04  1.570000e+04  5.750000e+03
   endloop
 endfacet
 facet normal -0.000000e+00  0.000000e+00  1.000000e+00
   outer loop
     vertex -1.370000e+04  1.620000e+04  5.750000e+03
     vertex -1.320000e+04  1.570000e+04  5.750000e+03
     vertex -1.320000e+04  1.620000e+04  5.750000e+03
   endloop
 endfacet
 facet normal  0.000000e+00  0.000000e+00  1.000000e+00
   outer loop
     vertex -1.370000e+04  1.620000e+04  5.750000e+03
     vertex -1.370000e+04  1.570000e+04  5.750000e+03
     vertex -1.320000e+04  1.570000e+04  5.750000e+03
   endloop
 endfacet
endsolid
